<svg
  xmlns="http://www.w3.org/2000/svg"
  role="img"
  width="1rem"
  height="1rem"
  preserveAspectRatio="xMidYMid meet"
  viewBox="0 0 8.467 8.467"
>
  <path
    fill="currentColor"
    d="M6.787 2.207a.477.477 0 0 0-.363.188.74.74 0 0 0-.123.277c-.02.078-.012.09-.018.148L3.506 4.082a.265.265 0 0 0-.156.24v4.543c-.002.709.58 1.29 1.289 1.287l4.568-.007A1.3 1.3 0 0 0 10.5 8.854a.265.265 0 0 0 0-.002l-.006-5.057c0-.298-.056-.53-.162-.707a.78.78 0 0 0-.416-.338c-.13-.044-.148-.008-.246 0-.006-.037 0-.037-.01-.078a.745.745 0 0 0-.125-.277.482.482 0 0 0-.365-.188H6.79Zm.05.53h2.284c.008.014.017.03.025.064.024.092.026.201.026.201a.265.265 0 0 0 .35.25s.13-.033.228 0a.21.21 0 0 1 .129.107c.042.07.086.204.086.436l.006 5.057a.762.762 0 0 1-.764.763l-4.57.008a.75.75 0 0 1-.758-.756.265.265 0 0 0 0-.002v-4.37L6.633 3.24A.265.265 0 0 0 6.789 3s.002-.11.025-.201c.009-.034.017-.048.024-.063z"
    transform="translate(-2.691 -1.946)"
  />
  <path
    fill="currentColor"
    d="m5.094 2.467-1.434.635a.198.198 0 0 0-.101.261.198.198 0 0 0 .263.102l.022-.01.283.649a.198.198 0 0 0 .262.103.198.198 0 0 0 .101-.262l-.281-.65.672-.299.308.68a.198.198 0 0 0 .262.097.198.198 0 0 0 .1-.261l-.305-.678.01-.004a.198.198 0 0 0 .1-.262.198.198 0 0 0-.262-.101ZM6.525 2.736A.265.265 0 0 0 6.26 3c0 .309.08.522.209.65a.512.512 0 0 0 .195.123c.058.02.125.022.125.022h2.383s.067-.002.125-.022a.506.506 0 0 0 .193-.123c.128-.128.21-.341.21-.65a.265.265 0 0 0-.264-.264A.265.265 0 0 0 9.17 3c0 .212-.046.258-.053.266H6.842c-.007-.008-.053-.054-.053-.266a.265.265 0 0 0-.264-.264Z"
    transform="translate(-2.691 -1.946)"
  />
  <path
    fill="currentColor"
    d="M8.945 4.525a1.065 1.065 0 0 0-1.483.276l.294.202a.712.712 0 1 1 1.174.805L7.793 7.465a.711.711 0 1 1-1.174-.804l.2-.294-.292-.202-.202.294a1.065 1.065 0 0 0 .276 1.484 1.065 1.065 0 0 0 .799.164 1.065 1.065 0 0 0 .688-.446l1.136-1.656a1.065 1.065 0 0 0-.279-1.48Z"
    transform="translate(-2.691 -1.946)"
  />
  <path
    fill="currentColor"
    d="M8.123 4.227a1.193 1.193 0 0 0-.77.5l-.076.109c-.076.271.29.517.516.353l.074-.115c.114-.177.252-.252.395-.271a.61.61 0 0 1 .42.11.606.606 0 0 1 .252.35c.033.14.012.297-.112.467v.002L7.684 7.391a.548.548 0 0 1-.393.257.606.606 0 0 1-.412-.107.608.608 0 0 1-.25-.346.548.548 0 0 1 .1-.459l.273-.404c.044-.288-.254-.509-.51-.352l-.275.405a1.199 1.199 0 0 0 .31 1.668c.263.178.587.243.899.183.313-.057.591-.237.771-.5L9.334 6.08a1.2 1.2 0 0 0-1.211-1.853Zm.047.257a.93.93 0 0 1 .7.15h.001a.93.93 0 0 1 .244 1.296L7.98 7.586a.93.93 0 0 1-.602.39h-.002a.93.93 0 0 1-.941-1.443l.127-.183.076.05-.127.186a.832.832 0 0 0-.137.674.864.864 0 0 0 .356.5.866.866 0 0 0 .595.15.83.83 0 0 0 .578-.37l1.135-1.655a.828.828 0 0 0 .154-.682.867.867 0 0 0-.359-.51.873.873 0 0 0-.607-.152c-.172.023-.322.16-.46.309l-.076-.053c.139-.145.293-.278.48-.313Z"
    transform="translate(-2.691 -1.946)"
  />
  <path
    fill="currentColor"
    d="M5.157 8.492a.71.71 0 0 1-.184-.99L6.11 5.845a.71.71 0 0 1 .99-.184.7.7 0 0 1 .291.46.71.71 0 0 1-.111.536l-.3.444.293.202.302-.439a1.069 1.069 0 0 0-1.762-1.209L4.676 7.312a1.065 1.065 0 0 0 .276 1.485 1.065 1.065 0 0 0 .8.158 1.078 1.078 0 0 0 .69-.446l-.295-.202a.71.71 0 0 1-.99.185z"
    transform="translate(-2.691 -1.946)"
  />
  <path
    fill="currentColor"
    d="M6.523 5.08a1.175 1.175 0 0 0-.816.496l-.002.002-1.139 1.658a1.2 1.2 0 0 0 .311 1.67h.002c.264.176.587.24.898.178.313-.059.592-.238.774-.5l.076-.11c.021-.278-.284-.487-.516-.351l-.074.11a.575.575 0 0 1-.805.15.575.575 0 0 1-.15-.805v-.002L6.219 5.92a.577.577 0 0 1 .806-.15c.126.087.21.221.235.373l.002.002v.001a.577.577 0 0 1-.092.436l-.373.553c-.04.248.274.45.51.351l.379-.548v-.002c.203-.319.245-.653.17-.942a1.232 1.232 0 0 0-.502-.697 1.229 1.229 0 0 0-.83-.217Zm.03.262a.975.975 0 0 1 .652.174.973.973 0 0 1 .395.546c.057.22.031.468-.137.731l-.223.326-.078-.053.227-.334V6.73a.845.845 0 0 0 .132-.63.832.832 0 0 0-.345-.547A.846.846 0 0 0 6 5.77L4.863 7.428a.844.844 0 0 0 .219 1.174c.323.223.707.062.99-.186l.14.096c-.135.142-.287.276-.483.312h-.002v.002a.934.934 0 0 1-.7-.139.931.931 0 0 1-.242-1.3L5.922 5.73c.184-.25.405-.363.63-.388Z"
    transform="translate(-2.691 -1.946)"
  />
</svg>
