<?xml version="1.0" standalone="no"?>
<!DOCTYPE svg PUBLIC "-//W3C//DTD SVG 20010904//EN"
 "http://www.w3.org/TR/2001/REC-SVG-20010904/DTD/svg10.dtd">
<svg version="1.0" xmlns="http://www.w3.org/2000/svg"
 width="700.000000pt" height="700.000000pt" viewBox="0 0 700.000000 700.000000"
 preserveAspectRatio="xMidYMid meet">
<metadata>
Created by potrace 1.14, written by Peter Selinger 2001-2017
</metadata>
<g transform="translate(0.000000,700.000000) scale(0.100000,-0.100000)"
fill="#000000" stroke="none">
<path d="M3339 6777 c-176 -24 -314 -178 -356 -398 -9 -46 -17 -89 -18 -94 -2
-6 -130 -69 -286 -140 -156 -71 -316 -143 -355 -161 l-71 -32 -69 156 -70 157
30 20 c45 30 77 99 71 153 -10 82 -83 146 -161 143 -39 -1 -446 -174 -989
-420 -33 -15 -111 -50 -174 -77 -120 -52 -158 -82 -178 -138 -45 -132 95 -257
227 -202 12 5 25 -15 54 -86 22 -51 52 -121 68 -156 15 -34 28 -66 28 -71 0
-4 -78 -43 -172 -86 -309 -140 -336 -158 -360 -243 -10 -36 -13 -452 -12
-1986 0 -1068 4 -1961 8 -1986 48 -300 213 -564 456 -727 129 -87 233 -131
390 -165 94 -21 111 -21 2035 -19 1067 0 1976 4 2020 7 439 32 809 319 945
735 58 177 56 91 54 2404 -2 1172 -5 2173 -8 2225 -23 370 -179 627 -448 733
-69 28 -125 33 -190 18 -32 -8 -38 -6 -39 8 -4 85 -73 241 -138 310 -44 47
-102 83 -167 106 -45 17 -124 18 -1060 19 -556 1 -1035 -2 -1065 -7z m1978
-440 c42 -27 50 -307 12 -399 l-11 -28 -945 0 -944 0 -17 38 c-24 51 -23 309
1 362 l16 36 938 -1 c516 0 943 -3 950 -8z m-3471 -284 c64 -138 106 -235 102
-238 -2 -2 -109 -51 -238 -110 -129 -58 -253 -114 -275 -124 -22 -11 -41 -18
-41 -17 -10 11 -136 317 -133 321 6 6 531 243 542 244 4 1 23 -34 43 -76z
m4002 -138 c49 -21 80 -51 102 -100 36 -81 47 -124 57 -220 3 -38 7 -1049 7
-2245 l1 -2175 -31 -85 c-79 -222 -248 -370 -473 -415 -66 -14 -320 -16 -2036
-18 -1851 -2 -1964 -1 -2025 16 -190 52 -329 169 -413 347 -56 121 -54 40 -54
2033 l-1 1839 72 33 c39 18 168 76 286 130 118 54 249 113 290 132 41 19 197
90 345 158 149 67 299 136 335 153 36 16 110 50 165 75 184 83 219 99 303 138
46 22 86 39 88 39 2 0 32 13 66 30 34 16 62 29 63 27 1 -1 9 -21 18 -45 43
-110 132 -207 236 -256 l66 -31 1035 -2 c1080 -3 1085 -3 1160 38 135 74 210
182 260 377 12 47 21 50 78 27z"/>
<path d="M4570 5127 c-3 -3 -25 -7 -50 -10 -180 -19 -393 -125 -541 -269 -65
-64 -165 -195 -186 -245 -49 -118 73 -287 232 -321 111 -24 170 5 247 119 88
131 168 195 283 225 213 57 471 -70 572 -281 29 -63 37 -92 41 -154 7 -126
-26 -218 -137 -376 -19 -27 -71 -104 -116 -170 -45 -66 -96 -140 -114 -165
-17 -25 -68 -99 -113 -165 -649 -950 -635 -932 -753 -986 -99 -46 -158 -53
-285 -34 -67 10 -181 68 -243 125 -131 120 -187 285 -150 444 17 75 40 116
187 333 103 152 119 182 121 220 10 180 -175 330 -345 279 -30 -9 -60 -19 -66
-23 -19 -13 -273 -392 -304 -453 -35 -69 -79 -191 -86 -239 -3 -20 -10 -56
-14 -81 -5 -25 -7 -97 -6 -160 14 -521 431 -942 946 -955 188 -5 338 28 499
109 137 69 284 201 375 336 22 31 331 483 491 715 34 50 92 135 130 190 38 55
93 136 124 180 171 249 241 360 271 431 59 142 79 239 80 389 1 109 -8 174
-36 273 -105 361 -391 626 -756 701 -83 16 -287 29 -298 18z"/>
<path d="M3238 4415 c-2 -1 -30 -5 -63 -8 -189 -18 -379 -104 -537 -243 -66
-58 -131 -145 -347 -459 -120 -176 -229 -333 -241 -350 -29 -41 -297 -432
-435 -635 -61 -91 -123 -190 -138 -220 -28 -57 -79 -200 -72 -200 3 0 0 -11
-4 -24 -9 -23 -20 -110 -25 -193 -1 -23 1 -75 5 -115 56 -523 484 -900 1004
-884 117 4 135 6 220 27 46 11 52 13 80 23 11 5 38 15 60 23 56 20 191 99 245
142 74 60 155 148 211 229 48 68 54 82 51 122 -5 97 -84 207 -179 251 -61 28
-163 32 -213 7 -19 -9 -46 -34 -60 -55 -132 -202 -317 -291 -519 -249 -276 58
-443 328 -371 597 23 83 5 56 470 732 631 918 571 835 644 891 115 87 247 117
391 87 268 -56 433 -350 348 -621 -11 -37 -75 -142 -196 -323 -174 -261 -179
-269 -174 -310 17 -135 141 -242 292 -254 114 -10 112 -12 296 255 183 264
245 380 285 527 24 87 27 118 27 245 -1 126 -4 156 -26 230 -84 279 -257 491
-518 634 -101 55 -251 102 -359 112 -82 8 -149 11 -152 9z"/>
</g>
</svg>
